<svg xmlns="http://www.w3.org/2000/svg" viewBox="0 0 1200 630" role="img" aria-label="5 błędów w DAX">
  <defs>
    <linearGradient id="g1" x1="0" y1="0" x2="1" y2="1">
      <stop offset="0" stop-color="#0f3a22"/>
      <stop offset="1" stop-color="#1e9953"/>
    </linearGradient>
    <linearGradient id="g2" x1="0" y1="1" x2="0" y2="0">
      <stop offset="0" stop-color="#1e9953" stop-opacity="0.3"/>
      <stop offset="1" stop-color="#1e9953" stop-opacity="0.9"/>
    </linearGradient>
  </defs>
  <rect width="1200" height="630" fill="url(#g1)"/>
  <g opacity="0.08">
    <path d="M0 80 L1200 80 M0 160 L1200 160 M0 240 L1200 240 M0 320 L1200 320 M0 400 L1200 400 M0 480 L1200 480 M0 560 L1200 560" stroke="#fff" stroke-width="1"/>
  </g>
  <g transform="translate(80,140)">
    <text x="0" y="0" font-family="-apple-system, Segoe UI, Inter, sans-serif" font-weight="700" font-size="84" fill="#fff" letter-spacing="-2">5 błędów w DAX</text>
    <text x="0" y="80" font-family="-apple-system, Segoe UI, Inter, sans-serif" font-weight="500" font-size="32" fill="#a8e6c1">które kosztują firmy godziny</text>
  </g>
  <g transform="translate(80,360)">
    <rect x="0" y="120" width="60" height="80" rx="4" fill="url(#g2)"/>
    <rect x="80" y="60" width="60" height="140" rx="4" fill="url(#g2)"/>
    <rect x="160" y="100" width="60" height="100" rx="4" fill="url(#g2)"/>
    <rect x="240" y="20" width="60" height="180" rx="4" fill="#fff" opacity="0.95"/>
    <rect x="320" y="80" width="60" height="120" rx="4" fill="url(#g2)"/>
    <rect x="400" y="140" width="60" height="60" rx="4" fill="url(#g2)"/>
    <text x="240" y="0" font-family="-apple-system, Segoe UI, sans-serif" font-weight="600" font-size="22" fill="#fff">slow</text>
  </g>
  <g transform="translate(820,180)" opacity="0.85">
    <circle cx="120" cy="120" r="120" fill="none" stroke="#fff" stroke-width="2" opacity="0.3"/>
    <circle cx="120" cy="120" r="80" fill="none" stroke="#fff" stroke-width="2" opacity="0.4"/>
    <circle cx="120" cy="120" r="40" fill="#fff"/>
    <text x="120" y="128" text-anchor="middle" font-family="-apple-system, Segoe UI, sans-serif" font-weight="700" font-size="28" fill="#1e9953">DAX</text>
  </g>
  <text x="80" y="580" font-family="-apple-system, Segoe UI, sans-serif" font-weight="500" font-size="20" fill="#a8e6c1" opacity="0.8">pbix.pl · Power BI</text>
</svg>
